<?xml version="1.0" standalone="no"?>
<!DOCTYPE svg PUBLIC "-//W3C//DTD SVG 20010904//EN"
 "http://www.w3.org/TR/2001/REC-SVG-20010904/DTD/svg10.dtd">
<svg version="1.0" xmlns="http://www.w3.org/2000/svg"
 width="444.000000pt" height="444.000000pt" viewBox="0 0 444.000000 444.000000"
 preserveAspectRatio="xMidYMid meet">
<metadata>
Created by potrace 1.14, written by Peter Selinger 2001-2017
</metadata>
<g transform="translate(0.000000,444.000000) scale(0.100000,-0.100000)"
fill="#000000" stroke="none">
<path d="M2126 3802 c-3 -6 -23 -10 -44 -9 -20 1 -43 -2 -50 -7 -7 -4 -12 -2
-12 6 0 10 -2 10 -9 -1 -5 -7 -13 -11 -19 -7 -6 3 -13 2 -16 -2 -3 -5 -19 -8
-36 -7 -16 1 -30 -1 -30 -5 0 -4 -15 -6 -34 -5 -19 0 -32 -3 -29 -9 4 -5 -3
-7 -15 -4 -14 4 -20 2 -15 -5 4 -6 -2 -8 -16 -4 -14 3 -37 -2 -57 -14 -23 -13
-34 -15 -34 -6 -1 8 -5 6 -13 -4 -7 -9 -18 -14 -24 -12 -7 3 -13 0 -13 -7 0
-6 -4 -9 -8 -6 -5 3 -25 -3 -44 -14 -20 -10 -39 -16 -42 -13 -3 4 -6 1 -6 -6
0 -7 -4 -9 -10 -6 -5 3 -10 1 -10 -4 0 -6 -3 -10 -7 -10 -20 3 -34 -2 -28 -11
3 -6 -1 -7 -9 -4 -9 3 -23 -1 -31 -10 -9 -9 -23 -16 -31 -16 -9 0 -12 -5 -8
-12 5 -8 2 -9 -10 -5 -10 4 -19 1 -22 -8 -4 -8 -10 -12 -15 -9 -5 3 -9 1 -9
-4 0 -6 -13 -15 -30 -21 -16 -5 -30 -15 -30 -20 0 -6 -7 -11 -15 -11 -7 0 -19
-8 -24 -17 -6 -10 -11 -15 -11 -10 0 7 -40 -25 -87 -70 -13 -12 -23 -20 -23
-18 0 3 -23 -18 -50 -46 -28 -28 -50 -55 -50 -60 0 -5 -3 -8 -8 -6 -4 1 -8 -1
-9 -6 -5 -15 -48 -54 -55 -50 -4 2 -5 -4 -1 -13 4 -12 3 -15 -5 -10 -7 4 -12
1 -12 -8 0 -9 -4 -16 -10 -16 -5 0 -10 -6 -10 -14 0 -8 -7 -17 -16 -20 -8 -3
-13 -10 -10 -15 3 -5 -1 -11 -9 -15 -8 -3 -15 -12 -15 -21 0 -8 -4 -15 -10
-15 -5 0 -10 -5 -10 -12 0 -6 -10 -23 -22 -36 -13 -14 -17 -22 -11 -18 9 5 11
2 7 -8 -3 -9 -11 -13 -17 -9 -6 4 -8 0 -4 -10 3 -9 -1 -18 -10 -21 -9 -4 -13
-9 -10 -12 3 -4 -1 -13 -9 -21 -8 -8 -12 -18 -9 -23 3 -4 -2 -13 -10 -20 -8
-7 -12 -16 -9 -21 3 -5 0 -9 -7 -9 -7 0 -9 -3 -6 -7 4 -3 -1 -15 -10 -26 -10
-11 -13 -17 -6 -14 6 4 3 -10 -7 -30 -10 -21 -16 -41 -13 -45 2 -5 0 -8 -5 -8
-6 0 -13 -7 -16 -16 -4 -10 -2 -13 7 -8 9 6 9 5 0 -8 -7 -8 -10 -18 -6 -21 3
-4 1 -7 -5 -7 -6 0 -9 -9 -7 -20 2 -11 -1 -20 -7 -20 -5 0 -8 -6 -5 -14 3 -7
-2 -24 -10 -36 -13 -19 -13 -24 -2 -31 8 -5 9 -9 4 -9 -6 0 -12 -14 -13 -32
-2 -17 -7 -37 -12 -43 -6 -7 -5 -16 2 -23 7 -7 8 -12 2 -12 -6 0 -11 -24 -13
-52 -1 -29 -3 -63 -4 -75 0 -13 -6 -23 -11 -23 -6 0 -5 -4 2 -9 17 -11 17 -21
0 -32 -7 -5 -8 -9 -3 -9 6 0 11 -32 11 -73 2 -105 8 -177 14 -177 3 0 6 -10 7
-22 2 -49 8 -88 13 -88 3 0 7 -17 8 -37 2 -21 8 -40 13 -44 6 -3 10 -10 10
-15 -2 -15 22 -104 29 -104 3 0 7 -10 7 -22 1 -13 7 -24 13 -26 5 -2 7 -8 4
-13 -3 -6 0 -17 7 -26 14 -16 40 -79 41 -100 1 -7 5 -10 10 -7 4 3 8 -4 8 -16
0 -12 4 -18 10 -15 5 3 10 -3 10 -14 0 -12 5 -21 10 -21 6 0 9 -6 8 -12 -2 -7
2 -12 9 -11 7 2 10 -4 7 -12 -4 -8 -1 -15 6 -15 6 0 8 -4 5 -10 -3 -5 -1 -10
4 -10 6 0 11 -7 11 -16 0 -9 5 -12 12 -8 8 5 9 2 5 -9 -4 -11 -1 -17 9 -17 8
0 13 -4 10 -9 -3 -5 1 -11 9 -15 8 -3 15 -10 15 -17 0 -6 16 -27 34 -45 19
-19 38 -44 41 -54 3 -11 9 -19 13 -17 4 1 7 0 7 -3 0 -5 51 -52 103 -96 12
-10 22 -24 22 -32 0 -7 4 -10 10 -7 5 3 19 -5 31 -19 12 -14 26 -23 31 -20 4
3 8 -2 8 -11 0 -9 4 -14 9 -10 5 3 16 -3 23 -12 7 -10 19 -19 27 -21 8 -2 20
-11 27 -20 7 -9 16 -14 20 -10 4 5 14 -1 21 -12 8 -11 19 -18 24 -15 5 4 9 1
9 -6 0 -7 3 -10 6 -6 4 3 13 0 21 -8 8 -8 23 -15 34 -15 10 0 19 -4 19 -10 0
-8 61 -41 82 -44 3 -1 10 -4 14 -8 4 -5 14 -8 22 -8 9 0 24 -8 35 -17 15 -13
18 -14 12 -3 -7 12 -6 13 7 3 8 -7 18 -10 21 -6 4 3 7 1 7 -4 0 -6 11 -10 25
-9 13 2 22 -1 19 -5 -4 -8 25 -14 49 -10 4 0 7 -4 7 -10 0 -6 7 -9 15 -6 8 4
17 2 21 -4 3 -6 12 -8 20 -5 8 3 14 0 14 -6 0 -7 4 -7 14 1 10 8 16 8 24 -2 7
-7 27 -13 47 -12 19 1 35 -1 35 -4 0 -4 10 -7 23 -8 87 -3 199 -13 208 -19 8
-5 9 -3 5 5 -10 15 25 11 36 -4 5 -7 8 -6 8 1 0 6 19 10 45 9 25 0 45 4 45 9
0 6 5 4 10 -4 5 -8 10 -10 10 -4 0 6 12 10 27 8 15 -1 31 3 36 9 7 9 10 9 14
-1 2 -6 10 -9 16 -5 7 4 17 8 22 9 68 13 110 22 110 24 0 2 16 6 50 14 11 2
21 5 23 6 1 2 5 3 10 4 4 1 13 5 21 10 10 7 12 5 7 -5 -6 -10 -4 -10 6 1 7 8
22 15 33 15 11 -1 22 2 25 5 13 14 52 30 60 25 6 -4 10 -1 10 5 0 6 5 8 10 5
6 -3 10 -1 10 4 0 6 9 11 20 11 11 0 20 5 20 10 0 6 9 10 20 10 11 0 20 5 20
10 0 6 7 10 15 10 8 0 15 5 15 11 0 5 4 8 9 4 5 -3 16 2 24 10 9 8 20 15 26
15 6 0 11 5 11 11 0 5 4 8 9 5 5 -3 14 1 21 9 7 8 16 13 20 10 5 -3 11 4 15
15 3 11 9 19 13 19 21 -3 32 3 33 19 0 9 3 12 5 5 4 -8 16 -2 35 18 16 16 29
27 29 25 0 -3 16 10 36 29 20 19 40 35 45 35 6 0 8 4 5 8 -3 5 6 15 19 22 14
7 25 19 25 26 0 7 9 16 21 19 12 4 18 12 15 21 -3 7 -2 13 2 11 4 -1 17 8 30
21 12 12 19 22 15 22 -3 0 4 8 15 19 12 10 22 22 22 26 0 4 9 16 21 26 13 11
18 23 13 31 -4 7 -4 10 1 6 8 -8 39 29 40 47 1 6 6 9 13 8 6 -2 9 4 6 12 -4 8
-1 15 5 15 6 0 11 6 11 13 0 7 9 23 20 35 12 12 16 22 9 22 -7 0 -2 8 9 19 24
20 30 37 10 25 -16 -10 11 26 31 42 8 6 11 18 8 28 -4 9 -2 16 4 16 6 0 8 4 4
9 -3 5 1 15 8 23 7 7 14 18 16 23 10 46 15 62 25 74 9 12 8 13 -3 7 -8 -6 -7
0 4 18 10 14 14 26 10 26 -4 0 -3 6 2 13 6 6 11 19 11 27 0 8 3 24 5 35 18 70
24 105 20 105 -3 0 0 7 7 15 10 12 10 15 0 15 -9 0 -10 3 -1 13 6 8 8 17 4 21
-4 4 -1 11 7 16 12 8 12 10 1 10 -10 0 -11 3 -2 14 9 11 9 15 0 18 -8 3 -6 9
5 21 10 9 14 17 9 17 -10 0 -11 70 -1 86 4 6 4 14 0 18 -10 11 -9 40 3 48 6 5
5 8 -2 8 -7 0 -13 5 -13 11 0 5 6 7 13 3 9 -6 9 -4 1 7 -16 20 -24 109 -10
109 6 0 5 4 -3 9 -7 5 -15 31 -18 57 -2 27 -5 55 -5 62 -1 6 -6 12 -12 12 -6
0 -4 5 4 10 11 7 11 10 2 10 -7 0 -11 4 -7 9 3 5 1 12 -4 16 -6 3 -8 12 -4 20
3 8 0 15 -7 15 -9 0 -10 3 -1 14 9 10 8 15 -3 19 -9 4 -13 15 -11 27 2 11 1
20 -3 20 -4 0 -8 10 -9 22 -1 11 -8 25 -15 29 -7 5 -9 9 -4 9 4 0 1 12 -9 26
-9 15 -12 23 -6 19 6 -3 2 10 -9 30 -11 19 -20 40 -20 46 0 5 -11 27 -24 48
-14 21 -22 42 -19 45 4 3 1 6 -5 6 -7 0 -12 6 -12 13 0 7 -9 23 -20 35 -11 12
-20 25 -20 30 0 5 -9 21 -20 34 -10 14 -16 28 -13 32 3 3 -1 6 -11 6 -9 0 -14
5 -11 10 3 6 1 10 -5 10 -6 0 -8 5 -5 10 3 6 -1 10 -10 10 -11 0 -15 5 -12 14
4 9 -2 17 -14 21 -10 4 -19 13 -19 20 0 8 -9 21 -21 29 -13 9 -18 19 -14 27 5
7 4 10 -2 6 -6 -4 -26 11 -45 33 -20 21 -39 36 -43 32 -5 -4 -5 1 -2 11 4 10
3 16 -2 13 -9 -6 -51 30 -51 45 0 6 -4 8 -8 5 -5 -3 -25 10 -45 29 -19 18 -38
31 -41 28 -3 -3 -8 2 -12 11 -3 9 -12 16 -20 16 -8 0 -14 5 -14 10 0 6 -9 10
-21 10 -11 0 -17 5 -14 10 3 6 -1 10 -9 10 -9 0 -16 4 -16 8 0 5 -16 14 -35
22 -19 8 -35 18 -35 22 0 5 -4 6 -10 3 -5 -3 -10 -1 -10 5 0 7 -7 10 -15 6 -9
-3 -15 0 -15 9 0 9 -6 12 -15 9 -8 -4 -15 -1 -15 5 0 6 -8 11 -17 11 -9 0 -25
8 -36 18 -15 12 -18 13 -12 2 6 -11 3 -10 -12 3 -11 9 -23 14 -26 10 -4 -3 -7
-1 -7 6 0 8 -7 10 -21 6 -16 -5 -19 -4 -14 6 6 9 3 11 -8 6 -10 -3 -17 -2 -17
4 0 6 -4 8 -9 4 -5 -3 -13 0 -16 6 -4 5 -13 8 -21 5 -8 -3 -14 -1 -14 4 0 6
-3 9 -7 8 -16 -3 -83 15 -89 24 -3 5 -13 4 -22 -4 -12 -10 -14 -10 -8 0 5 8
-1 12 -21 13 -40 2 -64 6 -97 14 -23 6 -27 5 -21 -6 7 -12 6 -12 -7 -1 -9 7
-38 14 -65 15 -26 1 -51 7 -55 12 -5 6 -8 6 -8 -2 0 -12 -17 -12 -37 0 -8 5
-13 3 -13 -3 0 -7 -6 -8 -19 -1 -10 6 -22 7 -26 3 -10 -10 -29 -9 -36 1 -4 5
-9 5 -13 -1z"/>
</g>
</svg>
